<?xml version="1.0" encoding="utf-8"?>
<!-- Generator: Adobe Illustrator 16.0.0, SVG Export Plug-In . SVG Version: 6.00 Build 0)  -->
<!DOCTYPE svg PUBLIC "-//W3C//DTD SVG 1.1//EN" "http://www.w3.org/Graphics/SVG/1.1/DTD/svg11.dtd">
<svg version="1.1" id="Layer_1" xmlns="http://www.w3.org/2000/svg" xmlns:xlink="http://www.w3.org/1999/xlink" x="0px" y="0px"
	 width="145.051px" height="72.252px" viewBox="0 0 145.051 72.252" enable-background="new 0 0 145.051 72.252"
	 xml:space="preserve">
<path fill="#FFFFFF" d="M49.845,47.665c0.164,0,0.297-0.139,0.297-0.298c0-0.163-0.138-0.296-0.297-0.296
	c-0.164,0-0.296,0.139-0.296,0.296C49.549,47.531,49.677,47.665,49.845,47.665"/>
<path fill="#FFFFFF" d="M49.067,47.665c0.169,0,0.297-0.134,0.297-0.298c0-0.168-0.128-0.296-0.297-0.296
	c-0.163,0-0.291,0.139-0.291,0.296C48.776,47.531,48.898,47.665,49.067,47.665"/>
<path fill="#FFFFFF" d="M52.42,50.895c-0.164,0-0.297,0.133-0.297,0.297s0.128,0.297,0.297,0.297c0.164,0,0.296-0.139,0.296-0.297
	C52.716,51.028,52.579,50.895,52.42,50.895"/>
<path fill="#FFFFFF" d="M51.643,50.895c-0.164,0-0.291,0.133-0.291,0.297s0.127,0.297,0.291,0.297c0.169,0,0.297-0.139,0.297-0.297
	C51.94,51.028,51.807,50.895,51.643,50.895"/>
<path fill="#FFFFFF" d="M53.412,47.665c0.169,0,0.297-0.134,0.297-0.298c0-0.168-0.128-0.296-0.297-0.296
	c-0.164,0-0.291,0.139-0.291,0.296C53.121,47.531,53.243,47.665,53.412,47.665"/>
<path fill="#FFFFFF" d="M54.189,47.665c0.164,0,0.296-0.139,0.296-0.298c0-0.163-0.138-0.296-0.296-0.296
	c-0.164,0-0.297,0.139-0.297,0.296C53.892,47.531,54.02,47.665,54.189,47.665"/>
<path fill="#FFFFFF" d="M60.066,48.042c-0.22,0-0.465,0.021-0.644,0.057v0.439c0.189-0.03,0.399-0.051,0.593-0.051
	c0.792,0,1.068,0.358,1.068,1.073c0,0.154-0.015,0.313-0.035,0.466h-1.773h-0.078h-0.494c0.02-0.24,0.031-0.49,0.031-0.711
	c0-0.531-0.072-1.037-0.175-1.432l-0.546,0.082c0.092,0.384,0.158,0.859,0.158,1.391c0,0.18-0.01,0.455-0.036,0.67h-0.153
	c-0.517,0-0.691-0.082-0.691-0.557V48.17H56.75v1.15c0,0.578-0.189,0.746-0.48,0.746c-0.363,0-0.394-0.256-0.394-0.752v-0.941
	h-0.563v0.982c0,0.522-0.148,0.67-0.5,0.67h-0.127h-0.078h-0.526v-1.957h-0.557v1.957h-0.603h-0.077h-0.526v-1.957h-0.558v1.957
	h-0.602h-0.078h-0.52v-1.841c0,0-0.465-0.179-1.053-0.179c-0.9,0-1.314,0.604-1.314,1.273c0,0.731,0.368,1.191,1.355,1.191h1.532
	h0.078h1.686h0.077h1.686h0.078h0.127c0.378,0,0.583-0.139,0.685-0.384c0.071,0.256,0.327,0.425,0.67,0.425
	c0.429,0,0.685-0.205,0.777-0.425c0.143,0.302,0.419,0.384,1.012,0.384h1.241h0.078h2.279c0.061-0.368,0.087-0.691,0.087-0.941
	C61.642,48.554,61.207,48.042,60.066,48.042 M50.014,50.026h-0.399c-0.603,0-0.854-0.271-0.854-0.798
	c0-0.46,0.261-0.776,0.691-0.776c0.337,0,0.562,0.107,0.562,0.107V50.026z"/>
<path fill="#FFFFFF" d="M60.215,50.875c-0.174,0-0.307,0.133-0.307,0.307s0.133,0.307,0.307,0.307s0.307-0.133,0.307-0.307
	C60.522,51.002,60.389,50.875,60.215,50.875"/>
<path fill="#FFFFFF" d="M67.616,50.026h-0.603h-0.077H66.41v-3.007h-0.558v3.007H65.25h-0.079h-0.52v-1.841
	c0,0-0.465-0.179-1.053-0.179c-0.9,0-1.314,0.604-1.314,1.273c0,0.731,0.368,1.191,1.355,1.191h0.465v0.102
	c0,0.543-0.394,0.748-0.936,0.748c-0.393,0-0.807-0.099-0.807-0.099l-0.041,0.466c0,0,0.404,0.076,0.792,0.076
	c1.115,0,1.539-0.588,1.539-1.232v-0.061h0.52h0.079h1.685h0.077h1.16v-3.605h-0.557V50.026z M64.104,50.026h-0.399
	c-0.603,0-0.853-0.271-0.853-0.798c0-0.46,0.26-0.776,0.69-0.776c0.337,0,0.562,0.107,0.562,0.107V50.026z"/>
<rect x="69.092" y="46.866" fill="#FFFFFF" width="0.563" height="3.605"/>
<path fill="#FFFFFF" d="M72.941,47.665c0.169,0,0.297-0.134,0.297-0.298c0-0.168-0.128-0.296-0.297-0.296
	c-0.164,0-0.291,0.139-0.291,0.296C72.65,47.531,72.772,47.665,72.941,47.665"/>
<path fill="#FFFFFF" d="M73.719,47.665c0.164,0,0.297-0.139,0.297-0.298c0-0.163-0.138-0.296-0.297-0.296
	c-0.164,0-0.296,0.139-0.296,0.296C73.423,47.531,73.55,47.665,73.719,47.665"/>
<path fill="#FFFFFF" d="M74.255,50.026h-0.791c-1.019,0-1.33-0.367-1.33-1.119c0-0.281,0.072-0.625,0.188-0.865l-0.603,0.098
	c-0.082,0.21-0.149,0.537-0.149,0.834c0,0.951,0.492,1.498,1.826,1.498h1.416v-2.402h-0.558V50.026z"/>
<path fill="#FFFFFF" d="M78.554,48.006c-0.865,0-1.305,0.588-1.305,1.248c0,0.398,0.118,0.654,0.338,0.803
	c0,0-0.113-0.031-0.291-0.031h-0.394H76.82H76.3v-3.16h-0.563v3.605h1.083h0.082h2.771v-1.305
	C79.673,48.442,79.315,48.006,78.554,48.006 M79.126,50.026h-0.455c-0.604,0-0.859-0.261-0.859-0.798
	c0-0.46,0.261-0.776,0.695-0.776c0.389,0,0.619,0.229,0.619,0.793V50.026z"/>
<path fill="#FFFFFF" d="M83.705,47.69c0.169,0,0.312-0.139,0.312-0.313s-0.143-0.313-0.312-0.313s-0.312,0.144-0.312,0.313
	S83.536,47.69,83.705,47.69"/>
<path fill="#FFFFFF" d="M87.829,50.026h-0.602h-0.078h-0.525v-3.007h-0.558v3.007H85.47h-0.084h-0.284
	c0.021-0.184,0.03-0.353,0.03-0.496c0-0.976-0.435-1.488-1.575-1.488c-0.22,0-0.466,0.021-0.644,0.057v0.439
	c0.188-0.03,0.398-0.051,0.592-0.051c0.793,0,1.069,0.358,1.069,1.073c0,0.154-0.016,0.313-0.036,0.466h-1.772h-0.078h-0.244
	c-0.041-1.176-0.593-1.759-1.662-2.065l-0.138,0.471c0.859,0.24,1.227,0.735,1.253,1.595h-1.585v0.445h2.376h0.078h2.62h0.084h1.68
	h0.078h1.158v-3.605h-0.557V50.026z"/>
<path fill="#FFFFFF" d="M91.31,47.665c0.169,0,0.296-0.134,0.296-0.298c0-0.168-0.127-0.296-0.296-0.296
	c-0.164,0-0.292,0.139-0.292,0.296C91.018,47.531,91.141,47.665,91.31,47.665"/>
<path fill="#FFFFFF" d="M92.087,47.665c0.164,0,0.297-0.139,0.297-0.298c0-0.163-0.139-0.296-0.297-0.296
	c-0.163,0-0.297,0.139-0.297,0.296C91.79,47.531,91.918,47.665,92.087,47.665"/>
<path fill="#FFFFFF" d="M91.77,48.006c-0.864,0-1.304,0.588-1.304,1.277c0,0.728,0.367,1.188,1.355,1.188h1.068v-1.305
	C92.89,48.442,92.532,48.006,91.77,48.006 M92.343,50.026h-0.455c-0.6,0-0.854-0.261-0.854-0.798c0-0.46,0.261-0.776,0.689-0.776
	c0.389,0,0.619,0.229,0.619,0.793V50.026z"/>
<path fill="#FFFFFF" d="M99.171,47.665c0.168,0,0.297-0.134,0.297-0.298c0-0.168-0.129-0.296-0.297-0.296
	c-0.164,0-0.291,0.139-0.291,0.296C98.88,47.531,99.001,47.665,99.171,47.665"/>
<path fill="#FFFFFF" d="M99.948,47.665c0.162,0,0.295-0.139,0.295-0.298c0-0.163-0.138-0.296-0.295-0.296
	c-0.164,0-0.297,0.139-0.297,0.296C99.651,47.531,99.778,47.665,99.948,47.665"/>
<path fill="#FFFFFF" d="M104.454,50.026h-0.6h-0.08h-0.387v-0.859c0-0.725-0.363-1.16-1.125-1.16c-0.863,0-1.298,0.588-1.298,1.248
	c0,0.607-0.226,0.771-0.554,0.771h-0.045H99.84v-1.957h-0.558v1.957h-0.597h-0.083h-0.285c0.021-0.184,0.03-0.353,0.03-0.496
	c0-0.976-0.435-1.488-1.573-1.488c-0.221,0-0.467,0.021-0.646,0.057v0.439c0.188-0.03,0.399-0.051,0.593-0.051
	c0.793,0,1.069,0.358,1.069,1.073c0,0.154-0.015,0.313-0.036,0.466h-1.773h-0.078h-0.244c-0.041-1.176-0.592-1.759-1.662-2.065
	l-0.137,0.471c0.858,0.24,1.227,0.735,1.252,1.595h-1.584v0.445h2.375h0.078h2.621h0.083h1.681h0.078h0.045
	c0.424,0,0.648-0.184,0.73-0.439c0.174,0.26,0.419,0.439,1.166,0.439h1.389h0.08h1.158v-3.605h-0.559V50.026z M102.836,50.026
	h-0.455c-0.599,0-0.858-0.261-0.858-0.798c0-0.46,0.26-0.776,0.694-0.776c0.39,0,0.619,0.229,0.619,0.793V50.026z"/>
<rect x="105.932" y="46.866" fill="#FFFFFF" width="0.562" height="3.605"/>
<path fill="#FFFFFF" d="M111.433,48.006c-0.767,0-1.263,0.548-1.263,1.258c0,0.344,0.097,0.614,0.28,0.762h-0.225
	c-0.925,0-1.253-0.367-1.253-1.119c0-0.281,0.072-0.625,0.19-0.865l-0.604,0.098c-0.083,0.21-0.148,0.537-0.148,0.834
	c0,0.951,0.49,1.498,1.826,1.498h1.094c0.756,0,1.268-0.542,1.268-1.273C112.599,48.36,112.118,48.006,111.433,48.006
	 M111.387,50.026c-0.425,0-0.653-0.275-0.653-0.803c0-0.542,0.326-0.771,0.658-0.771c0.43,0,0.639,0.281,0.639,0.776
	C112.03,49.77,111.739,50.026,111.387,50.026"/>
<path fill="#FFFFFF" d="M111.402,47.69c0.169,0,0.312-0.139,0.312-0.313s-0.143-0.313-0.312-0.313s-0.312,0.144-0.312,0.313
	S111.233,47.69,111.402,47.69"/>
<path fill="#FFFFFF" d="M116.058,47.674c0.169,0,0.313-0.139,0.313-0.313s-0.144-0.313-0.313-0.313s-0.313,0.144-0.313,0.313
	C115.745,47.532,115.889,47.674,116.058,47.674"/>
<path fill="#FFFFFF" d="M120.065,48.006c-0.563,0-1.119,0.373-1.351,1.074h-0.011c0.041-0.266,0.058-0.594,0.058-0.844v-0.168
	h-0.558v1.957h-0.603h-0.077h-0.199c-0.184,0-0.418,0.021-0.418,0.021c0.229-0.18,0.352-0.518,0.352-0.85
	c0-0.838-0.48-1.191-1.16-1.191c-0.771,0-1.268,0.548-1.268,1.258c0,0.357,0.102,0.624,0.291,0.783c0,0-0.174-0.021-0.342-0.021
	h-0.287h-0.082h-0.521v-3.16h-0.563v3.605h1.084h0.082h3.031h0.077h1.988c1.12,0,1.524-0.583,1.524-1.305
	C121.114,48.442,120.751,48.006,120.065,48.006 M116.042,50.026c-0.42,0-0.645-0.275-0.645-0.803c0-0.542,0.317-0.771,0.655-0.771
	c0.429,0,0.64,0.281,0.64,0.776C116.692,49.77,116.399,50.026,116.042,50.026 M119.646,50.026h-0.889
	c0.092-0.777,0.566-1.574,1.201-1.574c0.394,0,0.582,0.287,0.582,0.756C120.54,49.659,120.347,50.026,119.646,50.026"/>
<path fill="#FFFFFF" d="M119.938,47.69c0.169,0,0.312-0.139,0.312-0.313s-0.143-0.313-0.312-0.313s-0.312,0.144-0.312,0.313
	S119.769,47.69,119.938,47.69"/>
<polygon fill="#FFFFFF" points="50.951,39.877 52.142,26.272 55.266,26.272 54.318,37.096 58.43,37.096 58.188,39.877 "/>
<path fill="#FFFFFF" d="M65.765,40.12c-4.213,0-6.041-2.6-5.673-6.813c0.394-4.495,3.68-7.276,7.389-7.276
	c4.213,0,6.061,2.6,5.693,6.813C72.78,37.337,69.474,40.12,65.765,40.12 M67.011,28.873c-1.855,0-3.334,1.471-3.563,4.092
	c-0.235,2.68,0.653,4.293,2.789,4.293c1.875,0,3.333-1.451,3.563-4.092C70.032,30.505,69.147,28.873,67.011,28.873"/>
<path fill="#FFFFFF" d="M81.567,40.099c-4.615,0-6.729-2.56-6.38-6.551c0.396-4.535,3.396-7.477,8.374-7.477
	c1.471,0,2.861,0.241,3.86,0.564l-0.854,2.862c-0.955-0.383-2.103-0.625-3.393-0.625c-2.943,0-4.338,1.895-4.549,4.293
	c-0.221,2.54,0.934,4.091,3.513,4.091c0.483,0,0.933-0.059,1.326-0.18l0.39-4.456h3.124l-0.575,6.59
	C85.022,39.777,83.302,40.099,81.567,40.099"/>
<polygon fill="#FFFFFF" points="89.608,39.877 90.799,26.272 93.923,26.272 92.732,39.877 "/>
<path fill="#FFFFFF" d="M98.979,40.12c-1.27,0-2.287-0.121-3.213-0.363l0.563-2.982c0.854,0.362,1.842,0.604,2.97,0.604
	c1.008,0,1.893-0.423,1.979-1.411c0.203-2.318-5.344-1.129-4.945-5.684c0.225-2.56,2.327-4.253,5.754-4.253
	c0.725,0,1.684,0.101,2.456,0.262l-0.521,2.721c-0.725-0.242-1.478-0.383-2.283-0.383c-1.331,0-1.963,0.544-2.03,1.31
	c-0.183,2.096,5.448,1.31,5.069,5.644C104.554,38.165,102.185,40.12,98.979,40.12"/>
<polygon fill="#FFFFFF" points="112.837,28.953 111.88,39.877 108.736,39.877 109.692,28.953 106.447,28.953 106.681,26.272 
	116.337,26.272 116.101,28.953 "/>
<polygon fill="#FFFFFF" points="117.503,39.877 118.693,26.272 121.817,26.272 120.628,39.877 "/>
<path fill="#FFFFFF" d="M129.744,40.039c-5.039,0-6.073-3.386-5.804-6.47c0.387-4.414,3.047-7.417,7.563-7.417
	c0.928,0,1.902,0.141,2.727,0.403l-0.654,2.862c-0.721-0.282-1.555-0.423-2.401-0.423c-2.196,0-3.526,1.592-3.741,4.051
	c-0.232,2.66,0.726,4.152,3.185,4.152c0.706,0,1.688-0.181,2.362-0.505l0.199,2.783C132.181,39.836,130.933,40.039,129.744,40.039"
	/>
<path fill="#FFFFFF" d="M49.426,57.84c-0.392,0-0.717-0.021-1.019-0.027v-3.832c0.302-0.012,0.746-0.028,1.19-0.028
	c1.213,0,1.959,0.558,1.959,1.89C51.556,57.158,50.679,57.84,49.426,57.84 M49.546,54.471c-0.188,0-0.381,0.006-0.518,0.017v2.795
	c0.125,0.017,0.307,0.034,0.461,0.034c0.825,0,1.406-0.444,1.406-1.428C50.896,54.977,50.491,54.471,49.546,54.471"/>
<polygon fill="#FFFFFF" points="52.239,57.819 52.239,53.975 54.267,53.975 54.267,54.487 52.86,54.487 52.86,55.586 54.197,55.586 
	54.197,56.093 52.86,56.093 52.86,57.288 54.267,57.288 54.267,57.819 "/>
<polygon fill="#FFFFFF" points="55.707,54.499 55.707,55.625 57.016,55.625 57.016,56.133 55.707,56.133 55.707,57.818 
	55.086,57.818 55.086,53.975 57.09,53.975 57.09,54.499 "/>
<path fill="#FFFFFF" d="M59.795,57.818l-0.29-0.848h-1.561l-0.296,0.848h-0.626l1.367-3.843h0.717l1.378,3.843H59.795z
	 M58.884,55.165c-0.068-0.188-0.12-0.353-0.159-0.523h-0.006c-0.052,0.171-0.097,0.336-0.16,0.523l-0.461,1.315h1.247L58.884,55.165
	z"/>
<polygon fill="#FFFFFF" points="61.583,54.499 61.583,55.625 62.893,55.625 62.893,56.133 61.583,56.133 61.583,57.818 
	60.963,57.818 60.963,53.975 62.967,53.975 62.967,54.499 "/>
<path fill="#FFFFFF" d="M66.439,57.875c-1.207,0-1.463-0.66-1.463-1.367v-2.533h0.62v2.488c0,0.513,0.171,0.899,0.888,0.899
	c0.621,0,0.9-0.262,0.9-0.979v-2.408H68v2.363C68,57.368,67.448,57.875,66.439,57.875"/>
<path fill="#FFFFFF" d="M71.273,57.819l-1.36-2.313c-0.154-0.273-0.273-0.512-0.375-0.757c0.021,0.376,0.038,1.401,0.038,2.01v1.06
	h-0.597v-3.844h0.824l1.332,2.266c0.144,0.24,0.285,0.519,0.399,0.769c-0.017-0.433-0.04-1.451-0.04-2.06v-0.975h0.598v3.844H71.273
	z"/>
<rect x="73.096" y="53.975" fill="#FFFFFF" width="0.621" height="3.844"/>
<polygon fill="#FFFFFF" points="75.937,54.499 75.937,57.818 75.316,57.818 75.316,54.499 74.258,54.499 74.258,53.975 
	76.995,53.975 76.995,54.499 "/>
<polygon fill="#FFFFFF" points="77.53,57.819 77.53,53.975 79.558,53.975 79.558,54.487 78.151,54.487 78.151,55.586 79.489,55.586 
	79.489,56.093 78.151,56.093 78.151,57.288 79.558,57.288 79.558,57.819 "/>
<path fill="#FFFFFF" d="M81.397,57.84c-0.393,0-0.719-0.021-1.02-0.027v-3.832c0.301-0.012,0.746-0.028,1.189-0.028
	c1.213,0,1.959,0.558,1.959,1.89C83.526,57.158,82.649,57.84,81.397,57.84 M81.517,54.471c-0.188,0-0.381,0.006-0.518,0.017v2.795
	c0.125,0.017,0.307,0.034,0.461,0.034c0.825,0,1.406-0.444,1.406-1.428C82.866,54.977,82.462,54.471,81.517,54.471"/>
<polygon fill="#FFFFFF" points="86.413,54.499 86.413,55.625 87.722,55.625 87.722,56.133 86.413,56.133 86.413,57.818 
	85.792,57.818 85.792,53.975 87.796,53.975 87.796,54.499 "/>
<path fill="#FFFFFF" d="M89.937,57.875c-1.16,0-1.725-0.757-1.725-1.924c0-1.281,0.837-2.032,1.846-2.032
	c1.16,0,1.73,0.758,1.73,1.924C91.788,57.124,90.951,57.875,89.937,57.875 M90,54.471c-0.626,0-1.127,0.5-1.127,1.395
	c0,0.877,0.364,1.451,1.127,1.451c0.626,0,1.127-0.495,1.127-1.395C91.127,55.051,90.757,54.471,90,54.471"/>
<path fill="#FFFFFF" d="M94.299,57.818l-1.161-1.661h-0.068v1.661h-0.621v-3.843c0.279-0.018,0.599-0.023,1.025-0.023
	c0.803,0,1.35,0.279,1.35,1.037c0,0.615-0.474,1.014-1.047,1.081c0.106,0.138,0.227,0.279,0.317,0.41l0.979,1.338H94.299z
	 M93.394,54.459c-0.125,0-0.232,0.006-0.324,0.017v1.219c0.057,0.005,0.166,0.011,0.301,0.011c0.502,0,0.804-0.256,0.804-0.643
	C94.174,54.641,93.905,54.459,93.394,54.459"/>
<polygon fill="#FFFFFF" points="97.101,57.819 97.101,53.975 97.722,53.975 97.722,57.284 99.042,57.284 99.042,57.819 "/>
<path fill="#FFFFFF" d="M100.897,57.875c-1.161,0-1.725-0.757-1.725-1.924c0-1.281,0.836-2.032,1.845-2.032
	c1.161,0,1.731,0.758,1.731,1.924C102.749,57.124,101.911,57.875,100.897,57.875 M100.96,54.471c-0.625,0-1.127,0.5-1.127,1.395
	c0,0.877,0.364,1.451,1.127,1.451c0.627,0,1.127-0.495,1.127-1.395C102.087,55.051,101.718,54.471,100.96,54.471"/>
<path fill="#FFFFFF" d="M105.134,57.87c-1.236,0-1.924-0.706-1.924-1.873c0-1.219,0.723-2.072,2.096-2.072
	c0.387,0,0.756,0.063,1.075,0.165l-0.131,0.563c-0.302-0.125-0.638-0.188-0.991-0.188c-0.979,0-1.383,0.678-1.383,1.446
	c0,0.894,0.484,1.411,1.332,1.411c0.223,0,0.416-0.028,0.598-0.086v-1.399h0.615v1.804C106.039,57.791,105.571,57.87,105.134,57.87"
	/>
<rect x="107.292" y="53.975" fill="#FFFFFF" width="0.621" height="3.844"/>
<path fill="#FFFFFF" d="M109.53,57.875c-0.326,0-0.615-0.035-0.86-0.103l0.073-0.599c0.24,0.098,0.524,0.16,0.814,0.16
	c0.405,0,0.752-0.166,0.752-0.586c0-0.81-1.686-0.467-1.686-1.715c0-0.654,0.502-1.115,1.395-1.115c0.217,0,0.479,0.029,0.689,0.074
	l-0.063,0.547c-0.205-0.068-0.433-0.108-0.66-0.108c-0.484,0-0.711,0.216-0.711,0.541c0,0.762,1.707,0.483,1.707,1.696
	C110.981,57.368,110.407,57.875,109.53,57.875"/>
<polygon fill="#FFFFFF" points="112.81,54.499 112.81,57.818 112.188,57.818 112.188,54.499 111.13,54.499 111.13,53.975 
	113.868,53.975 113.868,54.499 "/>
<rect x="114.403" y="53.975" fill="#FFFFFF" width="0.621" height="3.844"/>
<path fill="#FFFFFF" d="M117.472,57.864c-1.28,0-1.758-0.831-1.758-1.861c0-1.191,0.608-2.062,1.9-2.062
	c0.285,0,0.592,0.04,0.854,0.12l-0.091,0.568c-0.256-0.096-0.534-0.147-0.808-0.147c-0.809,0-1.174,0.614-1.174,1.418
	c0,0.894,0.383,1.405,1.219,1.405c0.262,0,0.574-0.073,0.792-0.176l0.103,0.541C118.218,57.784,117.849,57.864,117.472,57.864"/>
<path fill="#FFFFFF" d="M119.921,57.875c-0.325,0-0.615-0.035-0.86-0.103l0.073-0.599c0.24,0.098,0.525,0.16,0.816,0.16
	c0.403,0,0.75-0.166,0.75-0.586c0-0.81-1.685-0.467-1.685-1.715c0-0.654,0.501-1.115,1.396-1.115c0.215,0,0.478,0.029,0.688,0.074
	l-0.063,0.547c-0.205-0.068-0.433-0.108-0.66-0.108c-0.484,0-0.711,0.216-0.711,0.541c0,0.762,1.707,0.483,1.707,1.696
	C121.372,57.368,120.798,57.875,119.921,57.875"/>
<path fill="#FFFFFF" d="M43.306,21.754c-5.495-5.615-14.826-5.604-15.223-5.597c-0.355,0.003-0.641,0.293-0.638,0.648
	c0.003,0.353,0.291,0.637,0.643,0.637h0.006c0.091,0.004,9.176-0.017,14.293,5.211c2.415,2.467,3.579,5.74,3.46,9.71
	c-0.269,5.032-2.135,9.01-5.548,11.823c-7.138,5.886-19.056,5.089-21.804,4.813c0.187-2.462,1.232-12.639,1.961-19.561
	c0.037-0.353-0.219-0.67-0.572-0.707c-0.352-0.039-0.67,0.219-0.707,0.572c0,0-0.528,5.015-1.04,10.047
	c-1.053,10.334-1.048,10.341-0.8,10.634c0.103,0.12,0.247,0.2,0.403,0.222c0.111,0.016,2.078,0.285,4.97,0.285
	c1.047,0,2.215-0.035,3.461-0.131c7.887-0.604,12.479-3.148,14.942-5.178c3.704-3.053,5.729-7.342,6.018-12.766
	C47.262,28.068,45.975,24.479,43.306,21.754"/>
<path fill="#FFFFFF" d="M21.561,46.408c0.054,0.004,0.687,0.051,1.711,0.051c1.164,0,2.835-0.062,4.733-0.313
	c3.312-0.439,7.947-1.575,11.221-4.49c2.592-2.307,3.982-5.383,4.131-9.147c0.102-3.386-0.89-6.173-2.947-8.284
	c-4.129-4.236-11.034-4.258-11.316-4.253c-0.248,0.001-0.449,0.203-0.448,0.452c0.001,0.248,0.202,0.448,0.45,0.448
	c0.001,0,0.002,0,0.003,0c0.117,0,6.827,0.038,10.67,3.985c1.878,1.928,2.783,4.494,2.689,7.62
	c-0.139,3.506-1.427,6.367-3.828,8.505c-5.276,4.699-14.459,4.634-16.567,4.552c0.149-1.95,1.02-10.406,1.626-16.158
	c0.026-0.247-0.153-0.468-0.4-0.494c-0.248-0.029-0.468,0.153-0.494,0.4c0,0-0.436,4.131-0.86,8.274
	c-0.867,8.479-0.86,8.485-0.684,8.693C21.328,46.34,21.441,46.399,21.561,46.408"/>
<path fill="#FFFFFF" d="M26.339,29.088c-1.477,13.435-1.447,13.471-1.336,13.603c0.052,0.063,0.129,0.101,0.21,0.104
	c0.014,0.002,0.163,0.008,0.421,0.008c2.278,0,13.017-0.522,13.625-10.271c0.297-7.983-9.158-8.616-9.254-8.621
	c-0.161-0.008-0.301,0.114-0.311,0.277c-0.009,0.162,0.115,0.301,0.277,0.31c0.023,0.001,2.284,0.142,4.486,1.209
	c2.911,1.413,4.329,3.701,4.214,6.796c-0.268,4.295-2.591,7.232-6.905,8.73c-2.69,0.935-5.361,0.993-6.227,0.981
	c0.124-1.467,0.869-8.369,1.385-13.063c0.018-0.161-0.099-0.307-0.26-0.324C26.501,28.806,26.357,28.927,26.339,29.088"/>
<path fill="#FFFFFF" d="M22.171,20.008h-1.425c-0.143,0-0.281,0.056-0.378,0.153c-0.086,0.087-0.132,0.199-0.131,0.316
	c0.002,0.258,0.233,0.468,0.516,0.468h1.425c0.143,0,0.28-0.055,0.377-0.152c0.086-0.088,0.133-0.2,0.132-0.317
	C22.685,20.219,22.453,20.008,22.171,20.008"/>
<path fill="#FFFFFF" d="M18.451,20.793c0.086-0.087,0.133-0.199,0.132-0.317c-0.002-0.258-0.234-0.468-0.516-0.468h-1.425
	c-0.143,0-0.281,0.056-0.377,0.153c-0.086,0.087-0.133,0.199-0.132,0.317c0.002,0.258,0.233,0.468,0.516,0.468h1.425
	C18.217,20.946,18.354,20.89,18.451,20.793"/>
<path fill="#FFFFFF" d="M20.764,17.508h4.094c0.219,0,0.429-0.085,0.577-0.234c0.132-0.134,0.205-0.308,0.203-0.488
	c-0.003-0.397-0.358-0.72-0.79-0.72h-4.094c-0.219,0-0.429,0.085-0.576,0.234c-0.133,0.134-0.205,0.307-0.204,0.488
	C19.978,17.185,20.332,17.508,20.764,17.508"/>
<path fill="#FFFFFF" d="M24.346,20.162c-0.086,0.087-0.133,0.199-0.132,0.316c0.002,0.258,0.234,0.468,0.516,0.468h1.425
	c0.143,0,0.281-0.056,0.377-0.153c0.086-0.087,0.133-0.199,0.132-0.316c-0.002-0.258-0.233-0.468-0.516-0.468h-1.425
	C24.58,20.009,24.441,20.064,24.346,20.162"/>
<path fill="#FFFFFF" d="M18.414,17.273c0.133-0.134,0.205-0.307,0.203-0.488c-0.003-0.397-0.358-0.72-0.79-0.72h-4.094
	c-0.218,0-0.429,0.085-0.576,0.235c-0.133,0.133-0.205,0.307-0.203,0.487c0.003,0.397,0.357,0.72,0.789,0.72h4.094
	C18.056,17.507,18.266,17.422,18.414,17.273"/>
<path fill="#FFFFFF" d="M26.149,24.245c-0.003-0.194-0.164-0.352-0.358-0.352c-0.194,0-0.349,0.158-0.346,0.352
	c0.004,0.194,0.164,0.352,0.358,0.352C25.998,24.597,26.152,24.439,26.149,24.245"/>
<path fill="#FFFFFF" d="M19.437,24.597c0.194,0,0.349-0.158,0.346-0.352c-0.004-0.194-0.164-0.352-0.358-0.352
	c-0.195,0-0.349,0.158-0.346,0.352C19.082,24.438,19.243,24.597,19.437,24.597"/>
<path fill="#FFFFFF" d="M24.558,24.245c-0.003-0.194-0.164-0.352-0.358-0.352c-0.194,0-0.349,0.158-0.346,0.352
	c0.004,0.194,0.164,0.352,0.358,0.352C24.406,24.597,24.561,24.439,24.558,24.245"/>
<path fill="#FFFFFF" d="M22.262,24.245c0.003,0.194,0.164,0.352,0.358,0.352s0.349-0.158,0.346-0.352
	c-0.004-0.194-0.164-0.352-0.358-0.352C22.413,23.893,22.259,24.051,22.262,24.245"/>
<path fill="#FFFFFF" d="M21.028,24.597c0.194,0,0.349-0.158,0.346-0.352c-0.004-0.194-0.164-0.352-0.358-0.352
	c-0.194,0-0.349,0.158-0.346,0.352C20.674,24.438,20.834,24.597,21.028,24.597"/>
<path fill="#FFFFFF" d="M27.395,24.597c0.194,0,0.349-0.158,0.346-0.352c-0.004-0.194-0.164-0.352-0.358-0.352
	c-0.194,0-0.349,0.158-0.346,0.352C27.041,24.438,27.201,24.597,27.395,24.597"/>
<line fill="#FFFFFF" x1="0" y1="0" x2="0" y2="72.252"/>
</svg>
