<?xml version="1.0" encoding="UTF-8"?>
<svg id="Layer_1" data-name="Layer 1" xmlns="http://www.w3.org/2000/svg" version="1.1" viewBox="0 0 176 177.2">
  <defs>
    <style>
      .cls-1 {
        fill: #0071ce;
        stroke-width: 0px;
      }
    </style>
  </defs>
  <path class="cls-1" d="M156.3,29.3C128,.4,79.9.4,77.9.5c-1.8,0-3.3,1.5-3.3,3.3,0,1.8,1.5,3.3,3.3,3.3h0c.5,0,47.2,0,73.6,26.8,12.4,12.7,18.4,29.5,17.8,50-1.4,25.9-11,46.4-28.6,60.9-36.7,30.3-98.1,26.2-112.3,24.8,1-12.7,6.3-65.1,10.1-100.7.2-1.8-1.1-3.4-2.9-3.6-1.8-.2-3.4,1.1-3.6,2.9,0,0-2.7,25.8-5.4,51.7q-5.4,53.2-4.1,54.7c.5.6,1.3,1,2.1,1.1.6,0,10.7,1.5,25.6,1.5s11.4-.2,17.8-.7c40.6-3.1,64.3-16.2,76.9-26.7,19.1-15.7,29.5-37.8,31-65.7.7-22.4-6-40.9-19.7-54.9Z"/>
  <path class="cls-1" d="M44.3,156.2c.3,0,3.5.3,8.8.3s14.6-.3,24.4-1.6c17-2.3,40.9-8.1,57.8-23.1,13.3-11.9,20.5-27.7,21.3-47.1.5-17.4-4.6-31.8-15.2-42.6-21.3-21.8-56.8-21.9-58.3-21.9-1.3,0-2.3,1-2.3,2.3s1,2.3,2.3,2.3c0,0,0,0,0,0,.6,0,35.1.2,54.9,20.5,9.7,9.9,14.3,23.1,13.8,39.2-.7,18-7.3,32.8-19.7,43.8-27.2,24.2-74.4,23.9-85.3,23.4.8-10,5.3-53.6,8.4-83.2.1-1.3-.8-2.4-2.1-2.5-1.3-.1-2.4.8-2.5,2.1,0,0-2.2,21.3-4.4,42.6q-4.5,43.6-3.5,44.8c.4.5,1,.8,1.6.8Z"/>
  <path class="cls-1" d="M68.9,67c-7.6,69.2-7.5,69.4-6.9,70,.3.3.7.5,1.1.5,0,0,.8,0,2.2,0,11.7,0,67-2.7,70.1-52.9,1.5-41.1-47.1-44.4-47.6-44.4-.8,0-1.6.6-1.6,1.4,0,.8.6,1.6,1.4,1.6.1,0,11.8.7,23.1,6.2,15,7.3,22.3,19.1,21.7,35-1.4,22.1-13.3,37.2-35.5,44.9-13.8,4.8-27.6,5.1-32.1,5.1.6-7.6,4.5-43.1,7.1-67.3,0-.8-.5-1.6-1.3-1.7-.8-.1-1.6.5-1.7,1.3Z"/>
  <path class="cls-1" d="M47.5,20.3h-7.3c-.7,0-1.4.3-1.9.8-.4.4-.7,1-.7,1.6,0,1.3,1.2,2.4,2.7,2.4h7.3c.7,0,1.4-.3,1.9-.8.4-.4.7-1,.7-1.6,0-1.3-1.2-2.4-2.7-2.4Z"/>
  <path class="cls-1" d="M28.3,24.3c.4-.4.7-1,.7-1.6,0-1.3-1.2-2.4-2.7-2.4h-7.3c-.7,0-1.4.3-1.9.8-.4.4-.7,1-.7,1.6,0,1.3,1.2,2.4,2.7,2.4h7.3c.7,0,1.4-.3,1.9-.8Z"/>
  <path class="cls-1" d="M40.2,7.4h21.1c1.1,0,2.2-.4,3-1.2.7-.7,1.1-1.6,1-2.5,0-2-1.8-3.7-4.1-3.7h-21.1c-1.1,0-2.2.4-3,1.2-.7.7-1.1,1.6-1,2.5,0,2,1.8,3.7,4.1,3.7Z"/>
  <path class="cls-1" d="M58.7,21.1c-.4.4-.7,1-.7,1.6,0,1.3,1.2,2.4,2.7,2.4h7.3c.7,0,1.4-.3,1.9-.8.4-.4.7-1,.7-1.6,0-1.3-1.2-2.4-2.7-2.4h-7.3c-.7,0-1.4.3-1.9.8Z"/>
  <path class="cls-1" d="M28.1,6.2c.7-.7,1.1-1.6,1-2.5,0-2-1.8-3.7-4.1-3.7H4C2.9,0,1.8.4,1,1.2.4,1.9,0,2.8,0,3.7c0,2,1.8,3.7,4.1,3.7h21.1c1.1,0,2.2-.4,3-1.2Z"/>
  <path class="cls-1" d="M67.9,42.1c0-1-.8-1.8-1.8-1.8s-1.8.8-1.8,1.8c0,1,.8,1.8,1.8,1.8s1.8-.8,1.8-1.8Z"/>
  <path class="cls-1" d="M33.4,43.9c1,0,1.8-.8,1.8-1.8,0-1-.8-1.8-1.8-1.8s-1.8.8-1.8,1.8c0,1,.8,1.8,1.8,1.8Z"/>
  <path class="cls-1" d="M59.7,42.1c0-1-.8-1.8-1.8-1.8s-1.8.8-1.8,1.8c0,1,.8,1.8,1.8,1.8s1.8-.8,1.8-1.8Z"/>
  <path class="cls-1" d="M47.9,42.1c0,1,.8,1.8,1.8,1.8s1.8-.8,1.8-1.8c0-1-.8-1.8-1.8-1.8s-1.8.8-1.8,1.8Z"/>
  <path class="cls-1" d="M41.6,43.9c1,0,1.8-.8,1.8-1.8,0-1-.8-1.8-1.8-1.8s-1.8.8-1.8,1.8c0,1,.8,1.8,1.8,1.8Z"/>
  <path class="cls-1" d="M74.4,43.9c1,0,1.8-.8,1.8-1.8,0-1-.8-1.8-1.8-1.8s-1.8.8-1.8,1.8c0,1,.8,1.8,1.8,1.8Z"/>
</svg>